<svg xmlns="http://www.w3.org/2000/svg" version="1.1" xmlns:xlink="http://www.w3.org/1999/xlink" xmlns:svgjs="http://svgjs.dev/svgjs" width="1000" height="156" viewBox="0 0 1000 156"><g transform="matrix(1,0,0,1,-0.6060579489049474,0.49491824189883005)"><svg viewBox="0 0 396 62" data-background-color="#1f2d5a" preserveAspectRatio="xMidYMid meet" height="156" width="1000" xmlns="http://www.w3.org/2000/svg" xmlns:xlink="http://www.w3.org/1999/xlink"><g id="tight-bounds" transform="matrix(1,0,0,1,0.23999894776636665,-0.19669827562645992)"><svg viewBox="0 0 395.52 62.393396551252934" height="62.393396551252934" width="395.52"><g><svg viewBox="0 0 479.4484011760772 75.63312656867716" height="62.393396551252934" width="395.52"><g transform="matrix(1,0,0,1,0,1.3316975975671639)"><svg viewBox="0 0 395.52000000000004 72.96973137354283" height="72.96973137354283" width="395.52000000000004"><g id="textblocktransform"><svg viewBox="0 0 395.52000000000004 72.96973137354283" height="72.96973137354283" width="395.52000000000004" id="textblock"><g><svg viewBox="0 0 395.52000000000004 72.96973137354283" height="72.96973137354283" width="395.52000000000004"><g transform="matrix(1,0,0,1,0,0)"><svg width="395.52000000000004" viewBox="4.349999904632568 -35.900001525878906 197.27999877929688 36.400001525878906" height="72.96973137354283" data-palette-color="#fbfbfb"><g class="wordmark-text-0" data-fill-palette-color="primary" id="text-0"><path d="M8.05 0L5.5 0Q4.95 0 4.65-0.33 4.35-0.65 4.35-1.15L4.35-1.15 4.35-33.8Q4.35-34.35 4.65-34.68 4.95-35 5.5-35L5.5-35 17.7-35Q23.35-35 26.65-32.35 29.95-29.7 29.95-24.5L29.95-24.5Q29.95-20.65 28.03-18.23 26.1-15.8 22.8-14.85L22.8-14.85 30.5-1.55Q30.65-1.25 30.65-1L30.65-1Q30.65-0.6 30.33-0.3 30 0 29.6 0L29.6 0 27.2 0Q26.35 0 25.95-0.45 25.55-0.9 25.25-1.35L25.25-1.35 18-14.05 9.25-14.05 9.25-1.15Q9.25-0.65 8.93-0.33 8.6 0 8.05 0L8.05 0ZM9.25-30.8L9.25-18.3 17.5-18.3Q21.25-18.3 23.1-19.88 24.95-21.45 24.95-24.55L24.95-24.55Q24.95-27.6 23.13-29.2 21.3-30.8 17.5-30.8L17.5-30.8 9.25-30.8ZM46.85 0.5L46.85 0.5Q41.65 0.5 38.6-2.68 35.55-5.85 35.25-11.35L35.25-11.35Q35.2-12 35.2-13.03 35.2-14.05 35.25-14.7L35.25-14.7Q35.45-18.25 36.9-20.93 38.35-23.6 40.87-25.05 43.4-26.5 46.8-26.5L46.8-26.5Q50.6-26.5 53.17-24.9 55.75-23.3 57.1-20.35 58.45-17.4 58.45-13.45L58.45-13.45 58.45-12.6Q58.45-12.05 58.12-11.75 57.8-11.45 57.3-11.45L57.3-11.45 40-11.45Q40-11.4 40-11.25 40-11.1 40-11L40-11Q40.1-8.95 40.9-7.18 41.7-5.4 43.22-4.3 44.75-3.2 46.8-3.2L46.8-3.2Q48.6-3.2 49.8-3.75 51-4.3 51.75-4.98 52.5-5.65 52.75-6.05L52.75-6.05Q53.2-6.65 53.45-6.78 53.7-6.9 54.25-6.9L54.25-6.9 56.7-6.9Q57.15-6.9 57.47-6.63 57.8-6.35 57.75-5.85L57.75-5.85Q57.7-5.1 56.95-4.03 56.2-2.95 54.82-1.9 53.45-0.85 51.42-0.18 49.4 0.5 46.85 0.5ZM40-15.05L40-14.9 53.7-14.9 53.7-15.05Q53.7-17.3 52.87-19.05 52.05-20.8 50.5-21.83 48.95-22.85 46.8-22.85L46.8-22.85Q44.65-22.85 43.12-21.83 41.6-20.8 40.8-19.05 40-17.3 40-15.05L40-15.05ZM76.5 0L73.9 0Q73.4 0 73.07-0.33 72.75-0.65 72.75-1.15L72.75-1.15 72.75-30.55 63.15-30.55Q62.65-30.55 62.32-30.88 62-31.2 62-31.7L62-31.7 62-33.8Q62-34.35 62.32-34.68 62.65-35 63.15-35L63.15-35 87.25-35Q87.8-35 88.12-34.68 88.45-34.35 88.45-33.8L88.45-33.8 88.45-31.7Q88.45-31.2 88.12-30.88 87.8-30.55 87.25-30.55L87.25-30.55 77.7-30.55 77.7-1.15Q77.7-0.65 77.37-0.33 77.05 0 76.5 0L76.5 0ZM96.94 0L94.54 0Q94.04 0 93.72-0.33 93.39-0.65 93.39-1.15L93.39-1.15 93.39-24.85Q93.39-25.35 93.72-25.68 94.04-26 94.54-26L94.54-26 96.94-26Q97.44-26 97.77-25.68 98.09-25.35 98.09-24.85L98.09-24.85 98.09-1.15Q98.09-0.65 97.77-0.33 97.44 0 96.94 0L96.94 0ZM97.29-30.85L94.14-30.85Q93.64-30.85 93.32-31.18 92.99-31.5 92.99-32L92.99-32 92.99-34.7Q92.99-35.2 93.32-35.55 93.64-35.9 94.14-35.9L94.14-35.9 97.29-35.9Q97.79-35.9 98.14-35.55 98.49-35.2 98.49-34.7L98.49-34.7 98.49-32Q98.49-31.5 98.14-31.18 97.79-30.85 97.29-30.85L97.29-30.85ZM115.99 0.5L115.99 0.5Q112.44 0.5 109.87-0.88 107.29-2.25 105.89-4.83 104.49-7.4 104.39-11L104.39-11Q104.34-11.75 104.34-13 104.34-14.25 104.39-15L104.39-15Q104.49-18.6 105.89-21.18 107.29-23.75 109.87-25.13 112.44-26.5 115.99-26.5L115.99-26.5Q118.89-26.5 120.97-25.7 123.04-24.9 124.39-23.65 125.74-22.4 126.42-20.95 127.09-19.5 127.14-18.2L127.14-18.2Q127.19-17.7 126.84-17.4 126.49-17.1 125.99-17.1L125.99-17.1 123.59-17.1Q123.09-17.1 122.84-17.32 122.59-17.55 122.34-18.1L122.34-18.1Q121.44-20.55 119.89-21.55 118.34-22.55 116.04-22.55L116.04-22.55Q113.04-22.55 111.17-20.7 109.29-18.85 109.14-14.75L109.14-14.75Q109.09-12.95 109.14-11.25L109.14-11.25Q109.29-7.1 111.17-5.28 113.04-3.45 116.04-3.45L116.04-3.45Q118.34-3.45 119.89-4.45 121.44-5.45 122.34-7.9L122.34-7.9Q122.59-8.45 122.84-8.7 123.09-8.95 123.59-8.95L123.59-8.95 125.99-8.95Q126.49-8.95 126.84-8.63 127.19-8.3 127.14-7.8L127.14-7.8Q127.09-6.75 126.69-5.65 126.29-4.55 125.42-3.43 124.54-2.3 123.24-1.43 121.94-0.55 120.14-0.03 118.34 0.5 115.99 0.5ZM136.64 0L134.29 0Q133.79 0 133.46-0.33 133.14-0.65 133.14-1.15L133.14-1.15 133.14-34.35Q133.14-34.85 133.46-35.18 133.79-35.5 134.29-35.5L134.29-35.5 136.64-35.5Q137.14-35.5 137.46-35.18 137.79-34.85 137.79-34.35L137.79-34.35 137.79-16.95 147.64-25.15Q148.24-25.65 148.56-25.83 148.89-26 149.64-26L149.64-26 152.29-26Q152.74-26 153.04-25.7 153.34-25.4 153.34-24.95L153.34-24.95Q153.34-24.75 153.21-24.5 153.09-24.25 152.74-24L152.74-24 141.19-14.4 153.99-1.95Q154.59-1.45 154.59-1.05L154.59-1.05Q154.59-0.6 154.29-0.3 153.99 0 153.54 0L153.54 0 150.94 0Q150.19 0 149.84-0.18 149.49-0.35 148.94-0.85L148.94-0.85 137.79-11.5 137.79-1.15Q137.79-0.65 137.46-0.33 137.14 0 136.64 0L136.64 0ZM169.29 0.5L169.29 0.5Q164.09 0.5 161.04-2.68 157.99-5.85 157.69-11.35L157.69-11.35Q157.64-12 157.64-13.03 157.64-14.05 157.69-14.7L157.69-14.7Q157.89-18.25 159.34-20.93 160.79-23.6 163.31-25.05 165.84-26.5 169.24-26.5L169.24-26.5Q173.04-26.5 175.61-24.9 178.19-23.3 179.54-20.35 180.89-17.4 180.89-13.45L180.89-13.45 180.89-12.6Q180.89-12.05 180.56-11.75 180.24-11.45 179.74-11.45L179.74-11.45 162.44-11.45Q162.44-11.4 162.44-11.25 162.44-11.1 162.44-11L162.44-11Q162.54-8.95 163.34-7.18 164.14-5.4 165.66-4.3 167.19-3.2 169.24-3.2L169.24-3.2Q171.04-3.2 172.24-3.75 173.44-4.3 174.19-4.98 174.94-5.65 175.19-6.05L175.19-6.05Q175.64-6.65 175.89-6.78 176.14-6.9 176.69-6.9L176.69-6.9 179.14-6.9Q179.59-6.9 179.91-6.63 180.24-6.35 180.19-5.85L180.19-5.85Q180.14-5.1 179.39-4.03 178.64-2.95 177.26-1.9 175.89-0.85 173.86-0.18 171.84 0.5 169.29 0.5ZM162.44-15.05L162.44-14.9 176.14-14.9 176.14-15.05Q176.14-17.3 175.31-19.05 174.49-20.8 172.94-21.83 171.39-22.85 169.24-22.85L169.24-22.85Q167.09-22.85 165.56-21.83 164.04-20.8 163.24-19.05 162.44-17.3 162.44-15.05L162.44-15.05ZM200.48 0L197.03 0Q194.23 0 192.48-1.07 190.73-2.15 189.93-4.13 189.13-6.1 189.13-8.8L189.13-8.8 189.13-22 185.23-22Q184.73-22 184.41-22.33 184.08-22.65 184.08-23.15L184.08-23.15 184.08-24.85Q184.08-25.35 184.41-25.68 184.73-26 185.23-26L185.23-26 189.13-26 189.13-34.35Q189.13-34.85 189.46-35.18 189.78-35.5 190.28-35.5L190.28-35.5 192.63-35.5Q193.13-35.5 193.46-35.18 193.78-34.85 193.78-34.35L193.78-34.35 193.78-26 199.98-26Q200.53-26 200.83-25.68 201.13-25.35 201.13-24.85L201.13-24.85 201.13-23.15Q201.13-22.65 200.83-22.33 200.53-22 199.98-22L199.98-22 193.78-22 193.78-9.15Q193.78-6.8 194.58-5.45 195.38-4.1 197.43-4.1L197.43-4.1 200.48-4.1Q200.98-4.1 201.31-3.78 201.63-3.45 201.63-2.95L201.63-2.95 201.63-1.15Q201.63-0.65 201.31-0.33 200.98 0 200.48 0L200.48 0Z" fill="#fbfbfb" data-fill-palette-color="primary"></path></g></svg></g></svg></g></svg></g></svg></g><g transform="matrix(1,0,0,1,412.7464023037405,0)"><svg viewBox="0 0 66.70199887233665 75.63312656867716" height="75.63312656867716" width="66.70199887233665"><g><svg xmlns="http://www.w3.org/2000/svg" xmlns:xlink="http://www.w3.org/1999/xlink" version="1.1" x="0" y="0" viewBox="5.913000106811523 0 88.1729965209961 99.97900390625" enable-background="new 0 0 100 100" xml:space="preserve" height="75.63312656867716" width="66.70199887233665" class="icon-icon-0" data-fill-palette-color="accent" id="icon-0"><g fill="#154275" data-fill-palette-color="accent"><path fill-rule="evenodd" clip-rule="evenodd" d="M5.913 5.835v58.376c0.874 0.021 1.472 0.674 1.472 1.606 0 0.897-0.566 1.565-1.472 1.601v16.328c3.223 0 5.835 2.612 5.835 5.836h30.397c0-3.224 2.612-5.836 5.835-5.836V67.383c-0.753-0.122-1.264-0.735-1.264-1.564 0-0.843 0.521-1.435 1.264-1.562V5.835c-3.223 0-5.835-2.614-5.835-5.835H11.749C11.749 3.222 9.136 5.835 5.913 5.835zM44.466 65.818c0 0.922-0.588 1.613-1.535 1.613-0.896 0-1.512-0.691-1.512-1.613 0-0.947 0.641-1.614 1.537-1.614S44.466 64.871 44.466 65.818zM39.169 65.818c0 0.922-0.589 1.613-1.536 1.613-0.896 0-1.511-0.691-1.511-1.613 0-0.947 0.641-1.614 1.536-1.614C38.555 64.204 39.169 64.871 39.169 65.818zM33.872 65.818c0 0.922-0.589 1.613-1.536 1.613-0.897 0-1.509-0.691-1.509-1.613 0-0.947 0.639-1.614 1.535-1.614C33.257 64.204 33.872 64.871 33.872 65.818zM28.574 65.818c0 0.922-0.589 1.613-1.536 1.613-0.896 0-1.511-0.691-1.511-1.613 0-0.947 0.639-1.614 1.536-1.614C27.96 64.204 28.574 64.871 28.574 65.818zM23.277 65.818c0 0.922-0.589 1.613-1.536 1.613-0.896 0-1.509-0.691-1.509-1.613 0-0.947 0.64-1.614 1.535-1.614C22.664 64.204 23.277 64.871 23.277 65.818zM17.979 65.818c0 0.922-0.587 1.613-1.535 1.613-0.898 0-1.511-0.691-1.511-1.613 0-0.947 0.64-1.614 1.536-1.614C17.365 64.204 17.979 64.871 17.979 65.818zM12.683 65.818c0 0.922-0.589 1.613-1.537 1.613-0.896 0-1.509-0.691-1.509-1.613 0-0.947 0.639-1.614 1.535-1.614C12.068 64.204 12.683 64.871 12.683 65.818zM36.7 9.803v18.193h-1.399V9.803H36.7zM33.944 9.803v18.193h-1.442V9.803H33.944zM31.146 9.803v18.193h-4.199V9.803H31.146zM25.504 9.803v18.193h-1.356V9.803H25.504zM22.749 9.803v18.193h-2.799V9.803H22.749zM18.506 9.803v18.193H17.15V9.803H18.506z" fill="#154275" data-fill-palette-color="accent"></path><path fill-rule="evenodd" clip-rule="evenodd" d="M91.371 19.312L64 6.092c-1.402 2.9-4.891 4.118-7.793 2.716l-4.104 8.498v46.951 3.475 16.016 4.122H47.98c-0.944 0-1.714 0.769-1.714 1.714v4.122h-4.121H39.42l12.989 6.273c1.402-2.902 4.892-4.119 7.794-2.717l7.116-14.735c-0.624-0.438-0.818-1.212-0.457-1.959 0.366-0.758 1.092-1.064 1.816-0.856l25.408-52.606C91.186 25.703 89.971 22.212 91.371 19.312zM55.296 74.981c-0.4 0.829-1.231 1.195-2.085 0.783-0.808-0.389-1.059-1.277-0.657-2.109 0.41-0.852 1.275-1.175 2.084-0.784C55.444 73.262 55.708 74.128 55.296 74.981zM72.122 20.902l-7.911 16.382-1.221-0.59 7.911-16.382L72.122 20.902zM64.6 17.269l1.222 0.59-7.913 16.382-1.221-0.589L64.6 17.269zM60.064 77.285c-0.399 0.831-1.231 1.195-2.084 0.785-0.808-0.391-1.06-1.28-0.658-2.11 0.412-0.853 1.277-1.175 2.085-0.785C60.215 75.563 60.478 76.434 60.064 77.285zM59.209 34.868l7.911-16.382 2.521 1.216-7.912 16.383L59.209 34.868zM64.836 79.589c-0.401 0.829-1.231 1.197-2.085 0.784-0.808-0.39-1.06-1.279-0.659-2.109 0.412-0.854 1.279-1.176 2.086-0.785C64.983 77.869 65.247 78.735 64.836 79.589zM65.51 37.912l7.912-16.382 3.78 1.825-7.911 16.383L65.51 37.912zM70.512 40.328l7.912-16.383 1.298 0.627-7.911 16.382L70.512 40.328zM74.293 42.154l-1.262-0.609 7.913-16.383 1.26 0.609L74.293 42.154z" fill="#154275" data-fill-palette-color="accent"></path></g></svg></g></svg></g></svg></g><defs></defs></svg><rect width="395.52" height="62.393396551252934" fill="none" stroke="none" visibility="hidden"></rect></g></svg></g></svg>